<svg width="1200" height="1200" xmlns="http://www.w3.org/2000/svg" xmlns:xlink="http://www.w3.org/1999/xlink" version="1.1"><g transform="scale(10.8) translate(5.555555555555555, 9.000053617689343)">                        <g fill="#39e991"><path xmlns="http://www.w3.org/2000/svg" fill-rule="evenodd" clip-rule="evenodd" d="M0,41.088v36.549h100V41.088H81.382v3.136H70.36v-3.136H29.634v3.136H18.614  v-3.136H0L0,41.088z M34.492,26.286L34.492,26.286v-2.835l2.672-2.677h25.672l2.676,2.677v2.835H34.492L34.492,26.286z M0,38.416  L0,38.416h18.614v-2.191h11.021v2.191H70.36v-2.191h11.021v2.191H100v-6.642l-5.487-5.487H71.358v-4.709l-6.1-6.104H34.741  l-6.104,6.104v4.709H5.481L0,31.773V38.416L0,38.416z M40.591,58.932L40.591,58.932l6.9-15.251h9.431l-5.746,9.609h10.235  l-20.82,20.829l7.788-15.187H40.591z"/></g>        </g></svg>